<?xml version="1.0" encoding="UTF-8"?>
<svg width="20px" height="19px" viewBox="0 0 20 19" version="1.1" xmlns="http://www.w3.org/2000/svg" xmlns:xlink="http://www.w3.org/1999/xlink">
    <!-- Generator: Sketch 54.1 (76490) - https://sketchapp.com -->
    <title>Shape</title>
    <desc>Created with Sketch.</desc>
    <g id="Page-1" stroke="none" stroke-width="1" fill="none" fill-rule="evenodd">
        <g id="Apple-TV" transform="translate(-525.000000, -914.000000)" fill="#FFD100" fill-rule="nonzero">
            <g id="Group-3" transform="translate(218.000000, 831.000000)">
                <g id="Group-Copy" transform="translate(0.000000, 64.000000)">
                    <g id="star-outline" transform="translate(305.000000, 17.000000)">
                        <path d="M17.56,21 C17.4000767,21.0006435 17.2423316,20.9629218 17.1,20.89 L12,18.22 L6.9,20.89 C6.56213339,21.067663 6.15259539,21.0374771 5.8444287,20.8121966 C5.53626201,20.5869161 5.38323252,20.2058459 5.45,19.83 L6.45,14.2 L2.33,10.2 C2.06805623,9.93860108 1.9718844,9.55391377 2.08,9.2 C2.19824414,8.83742187 2.51242293,8.57366684 2.89,8.52 L8.59,7.69 L11.1,2.56 C11.2670864,2.21500967 11.6166774,1.99588989 12,1.99588989 C12.3833226,1.99588989 12.7329136,2.21500967 12.9,2.56 L15.44,7.68 L21.14,8.51 C21.5175771,8.56366684 21.8317559,8.82742187 21.95,9.19 C22.0581156,9.54391377 21.9619438,9.92860108 21.7,10.19 L17.58,14.19 L18.58,19.82 C18.652893,20.2027971 18.4967826,20.5930731 18.18,20.82 C17.9989179,20.9468967 17.7808835,21.010197 17.56,21 L17.56,21 Z M12,16.1 C12.1602994,16.0959525 12.318873,16.1338723 12.46,16.21 L16.23,18.21 L15.51,14 C15.4532795,13.6736117 15.5618811,13.3403171 15.8,13.11 L18.8,10.18 L14.6,9.56 C14.2876311,9.49711002 14.0239322,9.28912217 13.89,9 L12,5.25 L10.11,9 C9.9631585,9.29165474 9.68317024,9.49324629 9.36,9.54 L5.16,10.16 L8.16,13.09 C8.39811888,13.3203171 8.50672048,13.6536117 8.45,13.98 L7.73,18.14 L11.5,16.14 C11.6597446,16.0806125 11.8328455,16.0667644 12,16.1 L12,16.1 Z" id="Shape"></path>
                    </g>
                </g>
            </g>
        </g>
    </g>
</svg>