<?xml version="1.0" encoding="UTF-8"?>
<svg width="84px" height="84px" viewBox="0 0 84 84" version="1.1" xmlns="http://www.w3.org/2000/svg" xmlns:xlink="http://www.w3.org/1999/xlink">
    <!-- Generator: Sketch 54.1 (76490) - https://sketchapp.com -->
    <title>music-outline</title>
    <desc>Created with Sketch.</desc>
    <g id="Page-1" stroke="none" stroke-width="1" fill="none" fill-rule="evenodd">
        <g id="Apple-TV" transform="translate(-748.000000, -688.000000)">
            <g id="music-outline" transform="translate(750.000000, 690.000000)">
                <rect id="Rectangle" fill="#000000" fill-rule="nonzero" opacity="0" x="17" y="17" width="46" height="46"></rect>
                <circle id="Oval" stroke="#F6BC00" stroke-width="4" cx="40" cy="40" r="40"></circle>
                <path d="M53.4166667,45.75 L53.4166667,24.6666667 C53.413978,24.0834787 53.1459134,23.5332408 52.6883333,23.1716667 C52.2373283,22.8068333 51.6453571,22.6658878 51.0783333,22.7883333 L33.8283333,26.6216667 C32.9510473,26.8195074 32.3292883,27.6006917 32.3333333,28.5 L32.3333333,44.485 C29.6457004,43.2161885 26.4432065,43.8728688 24.4718165,46.0970258 C22.5004265,48.3211829 22.2329786,51.5793523 23.8152824,54.0952154 C25.3975863,56.6110786 28.4501262,57.7812054 31.3086904,56.9676554 C34.1672547,56.1541053 36.1462162,53.5520086 36.1666667,50.58 C36.1864957,50.2480737 36.1864957,49.9152597 36.1666667,49.5833333 L36.1666667,30.0333333 L49.5833333,27.0625 L49.5833333,40.6516667 C46.8941119,39.3820486 43.68961,40.0402833 41.7186006,42.2671564 C39.7475912,44.4940295 39.4834162,47.7547528 41.0702423,50.2698721 C42.6570683,52.7849914 45.7138158,53.9504955 48.572345,53.1303412 C51.4308741,52.3101868 53.4047031,49.7013357 53.4166667,46.7275 C53.4348619,46.4019207 53.4348619,46.0755793 53.4166667,45.75 L53.4166667,45.75 Z M29.535,53.4166667 C28.0327424,53.4161486 26.7877202,52.2518698 26.6866253,50.7530175 C26.5855305,49.2541653 27.6629305,47.9332434 29.1515122,47.7309987 C30.6400938,47.5287541 32.0308652,48.5143405 32.3333333,49.9858333 C32.3521696,50.1770372 32.3521696,50.3696295 32.3333333,50.5608333 C32.3336486,52.1158815 31.089733,53.385357 29.535,53.4166667 L29.535,53.4166667 Z M46.785,49.5833333 C45.2666938,49.5951671 44.0009329,48.4243033 43.8946455,46.9096757 C43.7883582,45.3950482 44.8781911,44.0588831 46.3832699,43.8585541 C47.8883486,43.6582252 49.2897391,44.6628034 49.5833333,46.1525 C49.6021696,46.3437039 49.6021696,46.5362961 49.5833333,46.7275 C49.5728819,48.3003837 48.3003837,49.5728819 46.7275,49.5833333 L46.785,49.5833333 Z" id="Shape" fill="#F6BC00" fill-rule="nonzero"></path>
            </g>
        </g>
    </g>
</svg>