<?xml version="1.0" encoding="UTF-8"?>
<svg width="18px" height="18px" viewBox="0 0 18 18" version="1.1" xmlns="http://www.w3.org/2000/svg" xmlns:xlink="http://www.w3.org/1999/xlink">
    <!-- Generator: Sketch 54.1 (76490) - https://sketchapp.com -->
    <title>search-outline</title>
    <desc>Created with Sketch.</desc>
    <g id="Page-1" stroke="none" stroke-width="1" fill="none" fill-rule="evenodd" opacity="0.210984003">
        <g id="Apple-TV" transform="translate(-1031.000000, -340.000000)" fill="#000000" fill-rule="nonzero">
            <g id="search-outline" transform="translate(1028.000000, 337.000000)">
                <rect id="Rectangle" opacity="0" x="0" y="0" width="24" height="24"></rect>
                <path d="M20.71,19.29 L17.31,15.9 C18.4069846,14.5024547 19.0022094,12.776655 19,11 C19,6.581722 15.418278,3 11,3 C6.581722,3 3,6.581722 3,11 C3,15.418278 6.581722,19 11,19 C12.776655,19.0022094 14.5024547,18.4069846 15.9,17.31 L19.29,20.71 C19.4777666,20.8993127 19.7333625,21.0057983 20,21.0057983 C20.2666375,21.0057983 20.5222334,20.8993127 20.71,20.71 C20.8993127,20.5222334 21.0057983,20.2666375 21.0057983,20 C21.0057983,19.7333625 20.8993127,19.4777666 20.71,19.29 Z M5,11 C5,7.6862915 7.6862915,5 11,5 C14.3137085,5 17,7.6862915 17,11 C17,14.3137085 14.3137085,17 11,17 C7.6862915,17 5,14.3137085 5,11 Z" id="Shape"></path>
            </g>
        </g>
    </g>
</svg>