<?xml version="1.0" encoding="UTF-8"?>
<svg width="17px" height="17px" viewBox="0 0 17 17" version="1.1" xmlns="http://www.w3.org/2000/svg" xmlns:xlink="http://www.w3.org/1999/xlink">
    <!-- Generator: Sketch 54.1 (76490) - https://sketchapp.com -->
    <title>icons/general_icons/close</title>
    <desc>Created with Sketch.</desc>
    <g id="Page-1" stroke="none" stroke-width="1" fill="none" fill-rule="evenodd">
        <g id="Apple-TV" transform="translate(-1274.000000, -370.000000)" fill-rule="nonzero">
            <g id="icons/general_icons/close" transform="translate(1250.000000, 346.000000)">
                <rect id="_margins" x="0" y="0" width="65" height="65"></rect>
                <g id="ic_close" transform="translate(24.000000, 24.000000)" fill="#C5C5C5">
                    <path d="M10.4955715,8.49879209 L16.5813569,2.42629681 C17.136327,1.87124785 17.136327,0.97133568 16.5813569,0.41628672 C16.0263869,-0.13876224 15.1266025,-0.13876224 14.5716325,0.41628672 L8.5,6.502937 L2.42836755,0.41628672 C1.87339745,-0.138762226 0.973613159,-0.138762219 0.41864307,0.416286735 C-0.136327019,0.971335689 -0.136327026,1.87124785 0.418643055,2.42629681 L6.5044285,8.49879209 L0.418643055,14.5712874 C0.150709061,14.837071 0,15.198867 0,15.5762924 C0,15.9537179 0.150709061,16.3155138 0.418643055,16.5812975 C0.684388925,16.8492695 1.04613348,17 1.4235053,17 C1.80087712,17 2.16262168,16.8492695 2.42836755,16.5812975 L8.5,10.4946472 L14.5716325,16.5812975 C14.8373783,16.8492695 15.1991229,17 15.5764947,17 C15.9538665,17 16.3156111,16.8492695 16.5813569,16.5812975 C16.8492909,16.3155138 17,15.9537179 17,15.5762924 C17,15.198867 16.8492909,14.837071 16.5813569,14.5712874 L10.4955715,8.49879209 Z" id="Path"></path>
                </g>
            </g>
        </g>
    </g>
</svg>